M48
;Layer_Color=6321
;FILE_FORMAT=2:4
INCH
;TYPE=PLATED
T1F00S00C0.0079
T3F00S00C0.0276
T4F00S00C0.0280
T5F00S00C0.0315
T6F00S00C0.0354
T7F00S00C0.0394
T8F00S00C0.0591
%
T01
X022150Y021550
T03
X018250Y012700
X018750
Y013200
X018250
Y013700
X018750
Y014200
X018250
Y014700
X018750
T04
X021150Y011750
X020700Y012600
X021100Y015100
X023000Y014950
X024200
X024550Y014350
X025150Y014407
X026000Y014650
X027300
X028450Y013250
X028800Y011800
X029700Y011900
X030650
X026100Y012600
X025500Y012550
X025050Y012950
X024350Y013100
X031600Y012900
X032700Y012450
X033550
X033600Y015200
X031600
X031250Y011650
X031600Y016800
X032074Y017676
X028850Y017550
X027550Y017200
X027500Y015800
X028400Y015850
X030050Y016050
X030300Y019850
X030350Y021500
X030265Y022450
X029050Y021000
X028550Y020350
X028000Y021100
X027450Y021700
X026000Y021050
X025500Y020050
X026550
X024200Y020400
X023600Y020200
X023450Y022100
X024000Y022450
X024500Y023050
X024700Y024350
X026700Y023800
X025800Y022400
X028850Y024100
X020800Y023600
X020900Y021550
X021450Y020850
X019750Y020600
X019600Y021300
X017900Y020900
X017700Y023250
X019300Y015810
X022900Y018650
T05
X019943Y017043
X019650Y017750
X019943Y018457
X020650Y018750
X021357Y018457
X021650Y017750
X021357Y017043
X020650Y016750
T06
X033900Y016250
Y017250
Y018250
Y019250
X030900
Y018250
Y017250
Y016250
X026900
Y017250
Y018250
Y019250
X023900
Y018250
Y017250
Y016250
T07
X018750Y021216
Y022200
Y023184
T08
X025450Y015117
Y023183
M30
