G04*
G04 #@! TF.GenerationSoftware,Altium Limited,CircuitMaker,2.2.1 (2.2.1.6)*
G04*
G04 Layer_Color=7318015*
%FSAX24Y24*%
%MOIN*%
G70*
G04*
G04 #@! TF.SameCoordinates,15A7914E-F671-45A4-99F6-4AAA3CFDCD00*
G04*
G04*
G04 #@! TF.FilePolarity,Positive*
G04*
G01*
G75*
%ADD18R,0.0295X0.0335*%
%ADD19R,0.0217X0.0354*%
%ADD20R,0.0354X0.0217*%
%ADD21R,0.0591X0.0591*%
%ADD22O,0.0315X0.0098*%
%ADD23O,0.0098X0.0315*%
%ADD24R,0.0650X0.0650*%
%ADD25R,0.0177X0.0177*%
%ADD26R,0.0531X0.0413*%
%ADD27R,0.0256X0.0276*%
%ADD28R,0.0610X0.0610*%
%ADD29R,0.0787X0.0472*%
%ADD30R,0.0236X0.0551*%
%ADD31R,0.0189X0.0157*%
%ADD32R,0.0228X0.0244*%
%ADD33R,0.0244X0.0228*%
%ADD34R,0.0472X0.0216*%
%ADD35R,0.0787X0.1102*%
%ADD36R,0.0177X0.0177*%
%ADD37R,0.0244X0.0244*%
%ADD38R,0.0413X0.0531*%
%ADD39R,0.0335X0.0295*%
%ADD40R,0.0315X0.0354*%
%ADD41R,0.0244X0.0244*%
%ADD42R,0.0472X0.0787*%
%ADD43R,0.0256X0.0256*%
%ADD44R,0.0630X0.0256*%
%ADD45R,0.0335X0.0157*%
D18*
X026554Y021000D02*
D03*
X027046D02*
D03*
X023654Y021550D02*
D03*
X024146D02*
D03*
X025596Y023900D02*
D03*
X025104D02*
D03*
X027754Y024100D02*
D03*
X028246D02*
D03*
X026096Y013350D02*
D03*
X025604D02*
D03*
D19*
X026650D02*
D03*
Y011992D02*
D03*
Y012897D02*
D03*
Y012444D02*
D03*
Y013803D02*
D03*
Y014256D02*
D03*
Y014708D02*
D03*
D20*
X029800Y011362D02*
D03*
X030253D02*
D03*
X030706D02*
D03*
X028442D02*
D03*
X027989D02*
D03*
X027536D02*
D03*
X027083D02*
D03*
X029347D02*
D03*
X028894D02*
D03*
X029800Y015338D02*
D03*
X030253D02*
D03*
X028894D02*
D03*
X028442D02*
D03*
X027989D02*
D03*
X027536D02*
D03*
X027083D02*
D03*
X029347D02*
D03*
X030706D02*
D03*
D21*
X028767Y013246D02*
D03*
Y013915D02*
D03*
X028097Y013246D02*
D03*
Y013915D02*
D03*
D22*
X021589Y021845D02*
D03*
Y021648D02*
D03*
Y021452D02*
D03*
Y021255D02*
D03*
X022711D02*
D03*
Y021452D02*
D03*
Y021648D02*
D03*
Y021845D02*
D03*
D23*
X021855Y020989D02*
D03*
X022052D02*
D03*
X022248D02*
D03*
X022445D02*
D03*
Y022111D02*
D03*
X022248D02*
D03*
X022052D02*
D03*
X021855D02*
D03*
D24*
X022150Y021550D02*
D03*
D25*
X018207Y022150D02*
D03*
X017893D02*
D03*
D26*
X020650Y022365D02*
D03*
Y022935D02*
D03*
X026350Y022265D02*
D03*
Y022835D02*
D03*
X027600Y017765D02*
D03*
Y018335D02*
D03*
D27*
X021250Y019913D02*
D03*
Y020287D02*
D03*
X022150D02*
D03*
Y019913D02*
D03*
X021700D02*
D03*
Y020287D02*
D03*
X020100Y013887D02*
D03*
Y013513D02*
D03*
X021650D02*
D03*
Y013887D02*
D03*
X023200Y013513D02*
D03*
Y013887D02*
D03*
D28*
X022900Y020014D02*
D03*
Y019286D02*
D03*
X021500Y022986D02*
D03*
Y023714D02*
D03*
X023800Y023236D02*
D03*
Y023964D02*
D03*
X029650Y019736D02*
D03*
Y020464D02*
D03*
D29*
X022700Y024030D02*
D03*
Y022770D02*
D03*
D30*
X025250Y022424D02*
D03*
X025624Y021676D02*
D03*
X024876D02*
D03*
D31*
X026660Y021500D02*
D03*
X026140D02*
D03*
D32*
X027335Y022200D02*
D03*
X026965D02*
D03*
D33*
X027350Y022985D02*
D03*
Y022615D02*
D03*
D34*
X027212Y024174D02*
D03*
Y023426D02*
D03*
X026188D02*
D03*
Y023800D02*
D03*
Y024174D02*
D03*
D35*
X028335Y022450D02*
D03*
X030265D02*
D03*
D36*
X017900Y022493D02*
D03*
Y022807D02*
D03*
D37*
Y021419D02*
D03*
Y021781D02*
D03*
X030350Y019081D02*
D03*
Y018719D02*
D03*
D38*
X024285Y020900D02*
D03*
X023715D02*
D03*
X028385Y023500D02*
D03*
X027815D02*
D03*
D39*
X020250Y021696D02*
D03*
Y021204D02*
D03*
D40*
X020500Y015194D02*
D03*
X020874Y014406D02*
D03*
X020126D02*
D03*
X021676D02*
D03*
X022424D02*
D03*
X022050Y015194D02*
D03*
X023226Y014406D02*
D03*
X023974D02*
D03*
X023600Y015194D02*
D03*
D41*
X029631Y015900D02*
D03*
X029269D02*
D03*
X024619Y020050D02*
D03*
X024981D02*
D03*
D42*
X028220Y016800D02*
D03*
X029480D02*
D03*
D43*
X027550Y020397D02*
D03*
Y020003D02*
D03*
D44*
X028358Y018026D02*
D03*
Y018400D02*
D03*
Y018774D02*
D03*
X029342D02*
D03*
Y018400D02*
D03*
Y018026D02*
D03*
D45*
X028026Y019444D02*
D03*
Y019956D02*
D03*
X028774D02*
D03*
Y019700D02*
D03*
Y019444D02*
D03*
M02*
