G04*
G04 #@! TF.GenerationSoftware,Altium Limited,CircuitMaker,2.2.1 (2.2.1.6)*
G04*
G04 Layer_Color=13813960*
%FSAX24Y24*%
%MOIN*%
G70*
G04*
G04 #@! TF.SameCoordinates,15A7914E-F671-45A4-99F6-4AAA3CFDCD00*
G04*
G04*
G04 #@! TF.FilePolarity,Positive*
G04*
G01*
G75*
%ADD10C,0.0098*%
%ADD11C,0.0079*%
%ADD14C,0.0100*%
%ADD16C,0.0025*%
%ADD17C,0.0050*%
%ADD117C,0.0157*%
%ADD118C,0.0032*%
G36*
X019471Y021540D02*
X019463Y021536D01*
X019456Y021531D01*
X019448Y021525D01*
X019442Y021519D01*
X019436Y021514D01*
X019432Y021509D01*
X019430Y021508D01*
X019429Y021506D01*
X019429Y021506D01*
X019428Y021505D01*
X019420Y021496D01*
X019413Y021486D01*
X019406Y021477D01*
X019401Y021467D01*
X019397Y021460D01*
X019395Y021456D01*
X019393Y021454D01*
X019392Y021451D01*
X019392Y021449D01*
X019391Y021448D01*
Y021448D01*
X019353D01*
X019356Y021455D01*
X019359Y021462D01*
X019362Y021469D01*
X019365Y021475D01*
X019368Y021481D01*
X019370Y021485D01*
X019372Y021488D01*
X019373Y021489D01*
Y021489D01*
X019378Y021497D01*
X019383Y021505D01*
X019387Y021511D01*
X019392Y021516D01*
X019395Y021521D01*
X019398Y021524D01*
X019399Y021526D01*
X019400Y021527D01*
X019150D01*
Y021566D01*
X019471D01*
Y021540D01*
D02*
G37*
G36*
X019470Y021351D02*
X019264Y021302D01*
X019250Y021298D01*
X019237Y021295D01*
X019225Y021292D01*
X019215Y021290D01*
X019210Y021289D01*
X019206Y021288D01*
X019203Y021287D01*
X019200Y021287D01*
X019198Y021286D01*
X019196D01*
X019195Y021285D01*
X019194D01*
X019215Y021282D01*
X019235Y021278D01*
X019253Y021274D01*
X019262Y021272D01*
X019271Y021270D01*
X019279Y021268D01*
X019286Y021266D01*
X019292Y021264D01*
X019297Y021263D01*
X019302Y021262D01*
X019305Y021261D01*
X019307Y021260D01*
X019308D01*
X019470Y021215D01*
Y021163D01*
X019253Y021103D01*
X019252Y021102D01*
X019249Y021101D01*
X019245Y021101D01*
X019241Y021100D01*
X019236Y021098D01*
X019231Y021097D01*
X019221Y021095D01*
X019211Y021092D01*
X019206Y021091D01*
X019203Y021090D01*
X019199Y021089D01*
X019197Y021089D01*
X019195Y021088D01*
X019194D01*
X019206Y021086D01*
X019218Y021083D01*
X019229Y021081D01*
X019239Y021079D01*
X019244Y021078D01*
X019248Y021077D01*
X019251Y021076D01*
X019254Y021076D01*
X019257Y021075D01*
X019259Y021075D01*
X019259Y021074D01*
X019260D01*
X019470Y021027D01*
Y020983D01*
X019150Y021066D01*
Y021111D01*
X019393Y021178D01*
X019399Y021180D01*
X019406Y021181D01*
X019412Y021183D01*
X019418Y021185D01*
X019423Y021186D01*
X019427Y021187D01*
X019430Y021187D01*
X019430Y021188D01*
X019431D01*
X019430Y021188D01*
X019427Y021189D01*
X019422Y021190D01*
X019416Y021192D01*
X019410Y021194D01*
X019404Y021195D01*
X019399Y021197D01*
X019396Y021197D01*
X019395Y021198D01*
X019394Y021198D01*
X019393D01*
X019150Y021265D01*
Y021307D01*
X019470Y021394D01*
Y021351D01*
D02*
G37*
G36*
X019249Y020954D02*
X019258Y020952D01*
X019266Y020950D01*
X019272Y020948D01*
X019278Y020945D01*
X019282Y020943D01*
X019284Y020941D01*
X019285Y020941D01*
X019292Y020935D01*
X019298Y020929D01*
X019304Y020922D01*
X019309Y020915D01*
X019313Y020909D01*
X019315Y020904D01*
X019316Y020902D01*
X019317Y020901D01*
X019318Y020900D01*
Y020899D01*
X019320Y020895D01*
X019321Y020891D01*
X019323Y020886D01*
X019325Y020880D01*
X019328Y020869D01*
X019331Y020857D01*
X019332Y020851D01*
X019334Y020846D01*
X019335Y020841D01*
X019336Y020837D01*
X019337Y020834D01*
X019338Y020831D01*
X019338Y020829D01*
Y020828D01*
X019340Y020819D01*
X019342Y020811D01*
X019345Y020803D01*
X019346Y020797D01*
X019349Y020791D01*
X019351Y020786D01*
X019352Y020781D01*
X019354Y020777D01*
X019356Y020774D01*
X019357Y020771D01*
X019358Y020769D01*
X019359Y020767D01*
X019361Y020765D01*
X019361Y020765D01*
X019366Y020761D01*
X019370Y020758D01*
X019375Y020755D01*
X019380Y020754D01*
X019383Y020753D01*
X019387Y020753D01*
X019388D01*
X019389D01*
X019397Y020754D01*
X019403Y020755D01*
X019409Y020758D01*
X019414Y020761D01*
X019418Y020764D01*
X019421Y020767D01*
X019423Y020769D01*
X019423Y020770D01*
X019425Y020773D01*
X019428Y020777D01*
X019431Y020786D01*
X019434Y020795D01*
X019436Y020804D01*
X019436Y020813D01*
X019437Y020816D01*
X019437Y020819D01*
Y020826D01*
X019437Y020839D01*
X019435Y020850D01*
X019432Y020859D01*
X019430Y020867D01*
X019427Y020873D01*
X019424Y020878D01*
X019422Y020880D01*
X019422Y020881D01*
X019415Y020888D01*
X019408Y020893D01*
X019401Y020897D01*
X019393Y020900D01*
X019387Y020901D01*
X019381Y020903D01*
X019379Y020903D01*
X019378Y020904D01*
X019377D01*
X019376D01*
X019380Y020944D01*
X019390Y020943D01*
X019399Y020941D01*
X019408Y020939D01*
X019415Y020936D01*
X019421Y020933D01*
X019426Y020931D01*
X019427Y020930D01*
X019429Y020929D01*
X019429Y020928D01*
X019430D01*
X019437Y020922D01*
X019444Y020916D01*
X019450Y020909D01*
X019455Y020902D01*
X019459Y020896D01*
X019461Y020891D01*
X019462Y020889D01*
X019463Y020888D01*
X019464Y020887D01*
Y020887D01*
X019467Y020876D01*
X019470Y020865D01*
X019472Y020855D01*
X019474Y020846D01*
X019475Y020837D01*
Y020834D01*
X019475Y020830D01*
Y020824D01*
X019475Y020812D01*
X019473Y020802D01*
X019472Y020791D01*
X019470Y020783D01*
X019468Y020776D01*
X019467Y020773D01*
X019466Y020770D01*
X019465Y020768D01*
X019465Y020767D01*
X019464Y020766D01*
Y020766D01*
X019460Y020756D01*
X019454Y020748D01*
X019449Y020741D01*
X019444Y020736D01*
X019439Y020731D01*
X019436Y020728D01*
X019433Y020726D01*
X019432Y020725D01*
X019432D01*
X019424Y020721D01*
X019416Y020718D01*
X019408Y020715D01*
X019401Y020714D01*
X019395Y020713D01*
X019391Y020712D01*
X019389D01*
X019387D01*
X019387D01*
X019387D01*
X019379Y020712D01*
X019371Y020714D01*
X019364Y020716D01*
X019358Y020718D01*
X019354Y020719D01*
X019350Y020721D01*
X019348Y020723D01*
X019347Y020723D01*
X019340Y020728D01*
X019334Y020733D01*
X019329Y020739D01*
X019325Y020744D01*
X019321Y020749D01*
X019319Y020753D01*
X019317Y020756D01*
X019317Y020756D01*
Y020757D01*
X019315Y020761D01*
X019313Y020765D01*
X019310Y020774D01*
X019307Y020785D01*
X019303Y020795D01*
X019301Y020804D01*
X019300Y020808D01*
X019299Y020812D01*
X019298Y020815D01*
X019297Y020817D01*
X019297Y020818D01*
Y020819D01*
X019295Y020827D01*
X019293Y020834D01*
X019291Y020840D01*
X019290Y020846D01*
X019289Y020852D01*
X019287Y020856D01*
X019286Y020860D01*
X019285Y020864D01*
X019284Y020867D01*
X019284Y020869D01*
X019282Y020873D01*
X019282Y020875D01*
X019281Y020876D01*
X019278Y020882D01*
X019275Y020889D01*
X019272Y020894D01*
X019269Y020897D01*
X019266Y020901D01*
X019265Y020902D01*
X019263Y020904D01*
X019263Y020904D01*
X019259Y020907D01*
X019254Y020910D01*
X019249Y020911D01*
X019246Y020913D01*
X019242Y020913D01*
X019239Y020913D01*
X019237D01*
X019236D01*
X019231Y020913D01*
X019226Y020912D01*
X019221Y020911D01*
X019217Y020909D01*
X019214Y020907D01*
X019211Y020906D01*
X019210Y020905D01*
X019209Y020904D01*
X019205Y020901D01*
X019201Y020896D01*
X019198Y020891D01*
X019194Y020887D01*
X019193Y020883D01*
X019191Y020880D01*
X019190Y020877D01*
X019189Y020876D01*
X019187Y020870D01*
X019185Y020862D01*
X019184Y020855D01*
X019183Y020848D01*
X019183Y020843D01*
X019182Y020838D01*
Y020834D01*
X019183Y020824D01*
X019184Y020815D01*
X019185Y020806D01*
X019187Y020799D01*
X019189Y020793D01*
X019190Y020788D01*
X019191Y020787D01*
X019191Y020785D01*
X019192Y020785D01*
Y020785D01*
X019195Y020777D01*
X019199Y020770D01*
X019204Y020765D01*
X019208Y020761D01*
X019211Y020757D01*
X019214Y020755D01*
X019216Y020753D01*
X019217Y020753D01*
X019223Y020749D01*
X019229Y020746D01*
X019236Y020744D01*
X019242Y020742D01*
X019248Y020741D01*
X019252Y020740D01*
X019254D01*
X019255Y020740D01*
X019256D01*
X019256D01*
X019253Y020700D01*
X019241Y020701D01*
X019230Y020703D01*
X019220Y020706D01*
X019211Y020709D01*
X019205Y020712D01*
X019202Y020713D01*
X019199Y020714D01*
X019198Y020716D01*
X019196Y020716D01*
X019195Y020717D01*
X019195D01*
X019186Y020724D01*
X019178Y020731D01*
X019172Y020739D01*
X019166Y020747D01*
X019162Y020753D01*
X019159Y020759D01*
X019158Y020761D01*
X019157Y020762D01*
X019157Y020763D01*
Y020763D01*
X019153Y020775D01*
X019150Y020787D01*
X019148Y020799D01*
X019146Y020810D01*
X019145Y020816D01*
X019145Y020821D01*
Y020825D01*
X019144Y020828D01*
Y020836D01*
X019145Y020848D01*
X019146Y020860D01*
X019149Y020870D01*
X019151Y020879D01*
X019153Y020887D01*
X019154Y020890D01*
X019155Y020893D01*
X019156Y020894D01*
X019156Y020896D01*
X019157Y020897D01*
Y020897D01*
X019162Y020907D01*
X019168Y020915D01*
X019174Y020923D01*
X019179Y020929D01*
X019184Y020933D01*
X019188Y020937D01*
X019191Y020939D01*
X019191Y020939D01*
X019192D01*
X019200Y020944D01*
X019209Y020948D01*
X019217Y020950D01*
X019224Y020952D01*
X019230Y020953D01*
X019235Y020954D01*
X019237D01*
X019239D01*
X019239D01*
X019240D01*
X019249Y020954D01*
D02*
G37*
D10*
X025500Y024099D02*
G03*
X025500Y024099I-000049J000000D01*
G01*
X019843Y021216D02*
G03*
X019843Y021216I-000049J000000D01*
G01*
D11*
X017650Y013300D02*
Y014100D01*
X017400Y013300D02*
X017650D01*
X017400Y014100D02*
X017650D01*
X017400Y011150D02*
X019550D01*
Y016250D01*
X017400D02*
X019550D01*
X017400Y011150D02*
Y016250D01*
X017963Y019917D02*
X019537D01*
X017963D02*
Y024483D01*
X019537D01*
Y019917D02*
Y024483D01*
X034400Y020250D02*
Y020500D01*
X034250Y020250D02*
X034400D01*
Y023500D02*
Y023750D01*
X034250D02*
X034400D01*
X032050D02*
X033000D01*
X032050Y020250D02*
X033000D01*
D14*
X032000Y013530D02*
X032300D01*
X020500Y022150D02*
X020700D01*
X020800Y022050D01*
Y021650D01*
X020700Y021550D01*
X020500D01*
X020400Y021650D01*
Y022050D01*
X020500Y022150D01*
X020200Y021550D02*
Y021950D01*
X019900D01*
X019800Y021850D01*
Y021550D01*
X020800Y023000D02*
X021000D01*
X021100Y022900D01*
Y022500D01*
X021000Y022400D01*
X020800D01*
X020700Y022500D01*
Y022900D01*
X020800Y023000D01*
X020400Y022400D02*
Y022900D01*
Y022700D01*
X020500D01*
X020300D01*
X020400D01*
Y022900D01*
X020300Y023000D01*
X019900Y022400D02*
Y022900D01*
Y022700D01*
X020000D01*
X019800D01*
X019900D01*
Y022900D01*
X019800Y023000D01*
X019050Y024200D02*
X019150Y024300D01*
X019350D01*
X019450Y024200D01*
Y024100D01*
X019350Y024000D01*
X019150D01*
X019050Y023900D01*
Y023800D01*
X019150Y023700D01*
X019350D01*
X019450Y023800D01*
X018850Y024300D02*
Y023700D01*
X018650Y023900D01*
X018450Y023700D01*
Y024300D01*
X018250Y023700D02*
X018050D01*
X018150D01*
Y024300D01*
X018250Y024200D01*
X018650Y012300D02*
X018850D01*
X018750D01*
Y011800D01*
X018850Y011700D01*
X018950D01*
X019050Y011800D01*
X018050Y011700D02*
X018450D01*
X018050Y012100D01*
Y012200D01*
X018150Y012300D01*
X018350D01*
X018450Y012200D01*
X033000Y022300D02*
X033200D01*
X033100D01*
Y021800D01*
X033200Y021700D01*
X033300D01*
X033400Y021800D01*
X032800Y021700D02*
X032600D01*
X032700D01*
Y022300D01*
X032800Y022200D01*
X025800Y022300D02*
Y021700D01*
X025500D01*
X025400Y021800D01*
Y021900D01*
X025500Y022000D01*
X025800D01*
X025500D01*
X025400Y022100D01*
Y022200D01*
X025500Y022300D01*
X025800D01*
X025200Y021700D02*
X025000D01*
X025100D01*
Y022300D01*
X025200Y022200D01*
D16*
X031650Y014400D02*
X031750D01*
X032750Y014450D02*
X032850D01*
X032750Y013850D02*
X032850D01*
X032800Y013900D02*
Y013800D01*
X033550Y014450D02*
X033650D01*
X033550Y013850D02*
X033650D01*
X033600Y013900D02*
Y013800D01*
X031650Y013850D02*
X031750D01*
X031700Y013900D02*
Y013800D01*
X031900Y013225D02*
Y013375D01*
X031825D01*
X031800Y013350D01*
Y013300D01*
X031825Y013275D01*
X031900D01*
X031850D02*
X031800Y013225D01*
X031650D02*
X031750D01*
X031650Y013325D01*
Y013350D01*
X031675Y013375D01*
X031725D01*
X031750Y013350D01*
X031600D02*
X031575Y013375D01*
X031525D01*
X031500Y013350D01*
Y013250D01*
X031525Y013225D01*
X031575D01*
X031600Y013250D01*
Y013350D01*
X033287Y013425D02*
Y013575D01*
X033212D01*
X033187Y013550D01*
Y013500D01*
X033212Y013475D01*
X033287D01*
X033237D02*
X033187Y013425D01*
X033137D02*
X033087D01*
X033112D01*
Y013575D01*
X033137Y013550D01*
X033013Y013450D02*
X032988Y013425D01*
X032938D01*
X032913Y013450D01*
Y013550D01*
X032938Y013575D01*
X032988D01*
X033013Y013550D01*
Y013525D01*
X032988Y013500D01*
X032913D01*
X034587Y013225D02*
Y013375D01*
X034512D01*
X034487Y013350D01*
Y013300D01*
X034512Y013275D01*
X034587D01*
X034537D02*
X034487Y013225D01*
X034437D02*
X034388D01*
X034413D01*
Y013375D01*
X034437Y013350D01*
X034313D02*
X034288Y013375D01*
X034238D01*
X034213Y013350D01*
Y013325D01*
X034238Y013300D01*
X034213Y013275D01*
Y013250D01*
X034238Y013225D01*
X034288D01*
X034313Y013250D01*
Y013275D01*
X034288Y013300D01*
X034313Y013325D01*
Y013350D01*
X034288Y013300D02*
X034238D01*
X032375Y014925D02*
Y014775D01*
X032300D01*
X032275Y014800D01*
Y014900D01*
X032300Y014925D01*
X032375D01*
X032125D02*
X032175Y014900D01*
X032225Y014850D01*
Y014800D01*
X032200Y014775D01*
X032150D01*
X032125Y014800D01*
Y014825D01*
X032150Y014850D01*
X032225D01*
X033275Y015075D02*
Y014925D01*
X033200D01*
X033175Y014950D01*
Y015050D01*
X033200Y015075D01*
X033275D01*
X033025D02*
X033125D01*
Y015000D01*
X033075Y015025D01*
X033050D01*
X033025Y015000D01*
Y014950D01*
X033050Y014925D01*
X033100D01*
X033125Y014950D01*
X034175Y014925D02*
Y014775D01*
X034100D01*
X034075Y014800D01*
Y014900D01*
X034100Y014925D01*
X034175D01*
X033950Y014775D02*
Y014925D01*
X034025Y014850D01*
X033925D01*
D17*
X018300Y021100D02*
X018200D01*
X018250D01*
Y021400D01*
X018300Y021350D01*
X018100Y022100D02*
X018300D01*
X018100Y022300D01*
Y022350D01*
X018150Y022400D01*
X018250D01*
X018300Y022350D01*
Y023300D02*
X018250Y023350D01*
X018150D01*
X018100Y023300D01*
Y023250D01*
X018150Y023200D01*
X018200D01*
X018150D01*
X018100Y023150D01*
Y023100D01*
X018150Y023050D01*
X018250D01*
X018300Y023100D01*
D117*
X032943Y014800D02*
X033257D01*
D118*
X034150Y013650D02*
Y013950D01*
X033750Y013650D02*
X034150D01*
X033750D02*
Y013950D01*
X034150Y014350D02*
Y014650D01*
X033750D02*
X034150D01*
X033750Y014350D02*
Y014650D01*
M02*
