G04*
G04 #@! TF.GenerationSoftware,Altium Limited,CircuitMaker,2.2.1 (2.2.1.6)*
G04*
G04 Layer_Color=15132400*
%FSAX24Y24*%
%MOIN*%
G70*
G04*
G04 #@! TF.SameCoordinates,15A7914E-F671-45A4-99F6-4AAA3CFDCD00*
G04*
G04*
G04 #@! TF.FilePolarity,Positive*
G04*
G01*
G75*
%ADD10C,0.0098*%
%ADD11C,0.0079*%
%ADD12C,0.0236*%
%ADD13C,0.0039*%
%ADD14C,0.0100*%
%ADD15C,0.0080*%
%ADD16C,0.0025*%
%ADD17C,0.0050*%
D10*
X018593Y017750D02*
G03*
X018593Y017750I-000049J000000D01*
G01*
X021274Y022160D02*
G03*
X021274Y022160I-000049J000000D01*
G01*
X023949Y019762D02*
G03*
X023949Y019762I-000049J000000D01*
G01*
X030949D02*
G03*
X030949Y019762I-000049J000000D01*
G01*
X019801Y014406D02*
G03*
X019801Y014406I-000049J000000D01*
G01*
X021351D02*
G03*
X021351Y014406I-000049J000000D01*
G01*
X022901D02*
G03*
X022901Y014406I-000049J000000D01*
G01*
X029391Y017681D02*
G03*
X029391Y017681I-000049J000000D01*
G01*
X028823Y019149D02*
G03*
X028823Y019149I-000049J000000D01*
G01*
D11*
X019222Y018927D02*
G03*
X019473Y019178I001428J-001177D01*
G01*
X025150Y019778D02*
G03*
X025650Y019778I000250J000000D01*
G01*
X032150D02*
G03*
X032650Y019778I000250J000000D01*
G01*
X019139Y019512D02*
X019473Y019178D01*
X018888Y019261D02*
X019139Y019512D01*
X018888Y019261D02*
X019222Y018927D01*
X021481Y022052D02*
Y022219D01*
X021648D01*
X022652D02*
X022819D01*
Y022052D02*
Y022219D01*
Y020881D02*
Y021048D01*
X022652Y020881D02*
X022819D01*
X021481D02*
Y021048D01*
Y020881D02*
X021648D01*
X024357Y015722D02*
X026443D01*
X025650Y019778D02*
X026443D01*
X024357D02*
X025150D01*
X026443Y015722D02*
Y019778D01*
X024357Y015722D02*
Y019778D01*
X031357Y015722D02*
Y019778D01*
X033443Y015722D02*
Y019778D01*
X031357D02*
X032150D01*
X032650D02*
X033443D01*
X031357Y015722D02*
X033443D01*
X023251Y022790D02*
Y024010D01*
X022149Y022790D02*
Y024010D01*
X025526Y022326D02*
X025860D01*
Y022129D02*
Y022326D01*
X024640D02*
X024974D01*
X024640Y022129D02*
Y022326D01*
X026371Y021343D02*
X026429D01*
X026371Y021657D02*
X026429D01*
X029050Y022450D02*
X029650Y021850D01*
Y023050D01*
X029050Y022450D02*
X029650Y023050D01*
X029000Y021850D02*
Y023050D01*
X020815Y015056D02*
X021075D01*
Y014735D02*
Y015056D01*
X019925D02*
X020185D01*
X019925Y014735D02*
Y015056D01*
X021475Y014735D02*
Y015056D01*
X021735D01*
X022625Y014735D02*
Y015056D01*
X022365D02*
X022625D01*
X023025Y014735D02*
Y015056D01*
X023285D01*
X024175Y014735D02*
Y015056D01*
X023915D02*
X024175D01*
X028240Y017351D02*
X029460D01*
X028240Y016249D02*
X029460D01*
X028341Y019287D02*
Y020113D01*
X028459Y019287D02*
Y020113D01*
X028341D02*
X028459D01*
X028341Y019287D02*
X028459D01*
D12*
X024869Y019384D02*
G03*
X024869Y019384I-000118J000000D01*
G01*
X031869D02*
G03*
X031869Y019384I-000118J000000D01*
G01*
D13*
X026144Y021736D02*
G03*
X026144Y021736I-000020J000000D01*
G01*
X027800Y021750D02*
Y023150D01*
Y021750D02*
X030800D01*
Y023150D01*
X027800D02*
X030800D01*
D14*
X018250Y017450D02*
X018800D01*
X018250Y018000D02*
X018750D01*
X018250Y017450D02*
Y018000D01*
X032050Y019000D02*
Y018500D01*
X032150Y018400D01*
X032350D01*
X032450Y018500D01*
Y019000D01*
X032650D02*
X033050D01*
Y018900D01*
X032650Y018500D01*
Y018400D01*
X024900Y018900D02*
Y018400D01*
X025000Y018300D01*
X025200D01*
X025300Y018400D01*
Y018900D01*
X025900D02*
X025700Y018800D01*
X025500Y018600D01*
Y018400D01*
X025600Y018300D01*
X025800D01*
X025900Y018400D01*
Y018500D01*
X025800Y018600D01*
X025500D01*
X029500Y013900D02*
Y013400D01*
X029600Y013300D01*
X029800D01*
X029900Y013400D01*
Y013900D01*
X030500D02*
X030100D01*
Y013600D01*
X030300Y013700D01*
X030400D01*
X030500Y013600D01*
Y013400D01*
X030400Y013300D01*
X030200D01*
X030100Y013400D01*
X020150Y018100D02*
Y017500D01*
X020450D01*
X020550Y017600D01*
Y018000D01*
X020450Y018100D01*
X020150D01*
X020750Y018000D02*
X020850Y018100D01*
X021050D01*
X021150Y018000D01*
Y017900D01*
X021050Y017800D01*
X020950D01*
X021050D01*
X021150Y017700D01*
Y017600D01*
X021050Y017500D01*
X020850D01*
X020750Y017600D01*
D15*
X026473Y015515D02*
X033127D01*
Y011185D02*
Y015515D01*
X026473Y011185D02*
X033127D01*
X026473D02*
Y015515D01*
X027019Y023694D02*
Y023906D01*
X026531Y024360D02*
X026869D01*
X026531Y023240D02*
X026869D01*
D16*
X026200Y021700D02*
X026300D01*
X026500D02*
X026600D01*
X026550Y021750D02*
Y021650D01*
X026675Y020575D02*
Y020725D01*
X026750D01*
X026775Y020700D01*
Y020650D01*
X026750Y020625D01*
X026675D01*
X026725D02*
X026775Y020575D01*
X026925Y020725D02*
X026825D01*
Y020650D01*
X026875Y020675D01*
X026900D01*
X026925Y020650D01*
Y020600D01*
X026900Y020575D01*
X026850D01*
X026825Y020600D01*
X020063Y021925D02*
Y022075D01*
X020138D01*
X020163Y022050D01*
Y022000D01*
X020138Y021975D01*
X020063D01*
X020113D02*
X020163Y021925D01*
X020213D02*
X020262D01*
X020238D01*
Y022075D01*
X020213Y022050D01*
X020337Y022075D02*
X020437D01*
Y022050D01*
X020337Y021950D01*
Y021925D01*
X025663Y013625D02*
Y013775D01*
X025738D01*
X025763Y013750D01*
Y013700D01*
X025738Y013675D01*
X025663D01*
X025713D02*
X025763Y013625D01*
X025813D02*
X025863D01*
X025838D01*
Y013775D01*
X025813Y013750D01*
X026037Y013775D02*
X025987Y013750D01*
X025937Y013700D01*
Y013650D01*
X025962Y013625D01*
X026012D01*
X026037Y013650D01*
Y013675D01*
X026012Y013700D01*
X025937D01*
X027363Y020625D02*
Y020775D01*
X027438D01*
X027463Y020750D01*
Y020700D01*
X027438Y020675D01*
X027363D01*
X027413D02*
X027463Y020625D01*
X027513D02*
X027562D01*
X027538D01*
Y020775D01*
X027513Y020750D01*
X027737Y020775D02*
X027637D01*
Y020700D01*
X027687Y020725D01*
X027712D01*
X027737Y020700D01*
Y020650D01*
X027712Y020625D01*
X027662D01*
X027637Y020650D01*
X021463Y013075D02*
Y013225D01*
X021538D01*
X021563Y013200D01*
Y013150D01*
X021538Y013125D01*
X021463D01*
X021513D02*
X021563Y013075D01*
X021613D02*
X021662D01*
X021637D01*
Y013225D01*
X021613Y013200D01*
X021812Y013075D02*
Y013225D01*
X021737Y013150D01*
X021837D01*
X023013Y013075D02*
Y013225D01*
X023088D01*
X023113Y013200D01*
Y013150D01*
X023088Y013125D01*
X023013D01*
X023063D02*
X023113Y013075D01*
X023163D02*
X023212D01*
X023187D01*
Y013225D01*
X023163Y013200D01*
X023287D02*
X023312Y013225D01*
X023362D01*
X023387Y013200D01*
Y013175D01*
X023362Y013150D01*
X023337D01*
X023362D01*
X023387Y013125D01*
Y013100D01*
X023362Y013075D01*
X023312D01*
X023287Y013100D01*
X019913Y013075D02*
Y013225D01*
X019988D01*
X020013Y013200D01*
Y013150D01*
X019988Y013125D01*
X019913D01*
X019963D02*
X020013Y013075D01*
X020063D02*
X020113D01*
X020087D01*
Y013225D01*
X020063Y013200D01*
X020287Y013075D02*
X020187D01*
X020287Y013175D01*
Y013200D01*
X020262Y013225D01*
X020212D01*
X020187Y013200D01*
X021538Y019525D02*
Y019675D01*
X021613D01*
X021638Y019650D01*
Y019600D01*
X021613Y019575D01*
X021538D01*
X021588D02*
X021638Y019525D01*
X021688D02*
X021737D01*
X021713D01*
Y019675D01*
X021688Y019650D01*
X021812Y019525D02*
X021862D01*
X021837D01*
Y019675D01*
X021812Y019650D01*
X021963Y019525D02*
Y019675D01*
X022038D01*
X022063Y019650D01*
Y019600D01*
X022038Y019575D01*
X021963D01*
X022013D02*
X022063Y019525D01*
X022113D02*
X022162D01*
X022137D01*
Y019675D01*
X022113Y019650D01*
X022237D02*
X022262Y019675D01*
X022312D01*
X022337Y019650D01*
Y019550D01*
X022312Y019525D01*
X022262D01*
X022237Y019550D01*
Y019650D01*
X020725Y020275D02*
Y020425D01*
X020800D01*
X020825Y020400D01*
Y020350D01*
X020800Y020325D01*
X020725D01*
X020775D02*
X020825Y020275D01*
X020875Y020300D02*
X020900Y020275D01*
X020950D01*
X020975Y020300D01*
Y020400D01*
X020950Y020425D01*
X020900D01*
X020875Y020400D01*
Y020375D01*
X020900Y020350D01*
X020975D01*
X023775Y021775D02*
Y021925D01*
X023850D01*
X023875Y021900D01*
Y021850D01*
X023850Y021825D01*
X023775D01*
X023825D02*
X023875Y021775D01*
X023925Y021900D02*
X023950Y021925D01*
X024000D01*
X024025Y021900D01*
Y021875D01*
X024000Y021850D01*
X024025Y021825D01*
Y021800D01*
X024000Y021775D01*
X023950D01*
X023925Y021800D01*
Y021825D01*
X023950Y021850D01*
X023925Y021875D01*
Y021900D01*
X023950Y021850D02*
X024000D01*
X017425Y022575D02*
Y022725D01*
X017500D01*
X017525Y022700D01*
Y022650D01*
X017500Y022625D01*
X017425D01*
X017475D02*
X017525Y022575D01*
X017575Y022725D02*
X017675D01*
Y022700D01*
X017575Y022600D01*
Y022575D01*
X017425Y022075D02*
Y022225D01*
X017500D01*
X017525Y022200D01*
Y022150D01*
X017500Y022125D01*
X017425D01*
X017475D02*
X017525Y022075D01*
X017675Y022225D02*
X017625Y022200D01*
X017575Y022150D01*
Y022100D01*
X017600Y022075D01*
X017650D01*
X017675Y022100D01*
Y022125D01*
X017650Y022150D01*
X017575D01*
X027875Y024375D02*
Y024525D01*
X027950D01*
X027975Y024500D01*
Y024450D01*
X027950Y024425D01*
X027875D01*
X027925D02*
X027975Y024375D01*
X028100D02*
Y024525D01*
X028025Y024450D01*
X028125D01*
X025275Y024175D02*
Y024325D01*
X025350D01*
X025375Y024300D01*
Y024250D01*
X025350Y024225D01*
X025275D01*
X025325D02*
X025375Y024175D01*
X025425Y024300D02*
X025450Y024325D01*
X025500D01*
X025525Y024300D01*
Y024275D01*
X025500Y024250D01*
X025475D01*
X025500D01*
X025525Y024225D01*
Y024200D01*
X025500Y024175D01*
X025450D01*
X025425Y024200D01*
X026975Y021875D02*
Y022025D01*
X027050D01*
X027075Y022000D01*
Y021950D01*
X027050Y021925D01*
X026975D01*
X027025D02*
X027075Y021875D01*
X027225D02*
X027125D01*
X027225Y021975D01*
Y022000D01*
X027200Y022025D01*
X027150D01*
X027125Y022000D01*
X027550Y022725D02*
Y022875D01*
X027625D01*
X027650Y022850D01*
Y022800D01*
X027625Y022775D01*
X027550D01*
X027600D02*
X027650Y022725D01*
X027700D02*
X027750D01*
X027725D01*
Y022875D01*
X027700Y022850D01*
X026275Y021925D02*
Y021775D01*
X026350D01*
X026375Y021800D01*
Y021900D01*
X026350Y021925D01*
X026275D01*
X026525Y021775D02*
X026425D01*
X026525Y021875D01*
Y021900D01*
X026500Y021925D01*
X026450D01*
X026425Y021900D01*
X030213Y018450D02*
X030188Y018475D01*
X030138D01*
X030113Y018450D01*
Y018350D01*
X030138Y018325D01*
X030188D01*
X030213Y018350D01*
X030263Y018325D02*
X030312D01*
X030287D01*
Y018475D01*
X030263Y018450D01*
X030387D02*
X030412Y018475D01*
X030462D01*
X030487Y018450D01*
Y018425D01*
X030462Y018400D01*
X030437D01*
X030462D01*
X030487Y018375D01*
Y018350D01*
X030462Y018325D01*
X030412D01*
X030387Y018350D01*
X024713Y020400D02*
X024688Y020425D01*
X024638D01*
X024613Y020400D01*
Y020300D01*
X024638Y020275D01*
X024688D01*
X024713Y020300D01*
X024763Y020275D02*
X024813D01*
X024787D01*
Y020425D01*
X024763Y020400D01*
X024987Y020275D02*
X024887D01*
X024987Y020375D01*
Y020400D01*
X024962Y020425D01*
X024912D01*
X024887Y020400D01*
X029388Y015700D02*
X029363Y015725D01*
X029313D01*
X029288Y015700D01*
Y015600D01*
X029313Y015575D01*
X029363D01*
X029388Y015600D01*
X029437Y015575D02*
X029487D01*
X029462D01*
Y015725D01*
X029437Y015700D01*
X029562Y015575D02*
X029612D01*
X029587D01*
Y015725D01*
X029562Y015700D01*
X020625Y023350D02*
X020600Y023375D01*
X020550D01*
X020525Y023350D01*
Y023250D01*
X020550Y023225D01*
X020600D01*
X020625Y023250D01*
X020750Y023225D02*
Y023375D01*
X020675Y023300D01*
X020775D01*
X017525Y021650D02*
X017500Y021675D01*
X017450D01*
X017425Y021650D01*
Y021550D01*
X017450Y021525D01*
X017500D01*
X017525Y021550D01*
X017575Y021650D02*
X017600Y021675D01*
X017650D01*
X017675Y021650D01*
Y021625D01*
X017650Y021600D01*
X017625D01*
X017650D01*
X017675Y021575D01*
Y021550D01*
X017650Y021525D01*
X017600D01*
X017575Y021550D01*
X026325Y023200D02*
X026300Y023225D01*
X026250D01*
X026225Y023200D01*
Y023100D01*
X026250Y023075D01*
X026300D01*
X026325Y023100D01*
X026475Y023075D02*
X026375D01*
X026475Y023175D01*
Y023200D01*
X026450Y023225D01*
X026400D01*
X026375Y023200D01*
X028800Y023700D02*
X028775Y023725D01*
X028725D01*
X028700Y023700D01*
Y023600D01*
X028725Y023575D01*
X028775D01*
X028800Y023600D01*
X028850Y023575D02*
X028900D01*
X028875D01*
Y023725D01*
X028850Y023700D01*
D17*
X019450Y019000D02*
X019500Y019050D01*
X019600D01*
X019650Y019000D01*
Y018950D01*
X019600Y018900D01*
X019650Y018850D01*
Y018800D01*
X019600Y018750D01*
X019500D01*
X019450Y018800D01*
Y018850D01*
X019500Y018900D01*
X019450Y018950D01*
Y019000D01*
X019500Y018900D02*
X019600D01*
X020550Y016300D02*
X020600Y016350D01*
X020700D01*
X020750Y016300D01*
Y016250D01*
X020700Y016200D01*
X020650D01*
X020700D01*
X020750Y016150D01*
Y016100D01*
X020700Y016050D01*
X020600D01*
X020550Y016100D01*
X021950Y018900D02*
X021850Y018850D01*
X021750Y018750D01*
Y018650D01*
X021800Y018600D01*
X021900D01*
X021950Y018650D01*
Y018700D01*
X021900Y018750D01*
X021750D01*
X028950Y023250D02*
X029150D01*
X019000Y017600D02*
X019100D01*
X019050D01*
Y017900D01*
X019000Y017850D01*
X019550Y016600D02*
X019350D01*
X019550Y016800D01*
Y016850D01*
X019500Y016900D01*
X019400D01*
X019350Y016850D01*
X020550Y019500D02*
X020750D01*
Y019450D01*
X020550Y019250D01*
Y019200D01*
X022350Y017900D02*
X022150D01*
Y017750D01*
X022250Y017800D01*
X022300D01*
X022350Y017750D01*
Y017650D01*
X022300Y017600D01*
X022200D01*
X022150Y017650D01*
X021850Y016500D02*
Y016800D01*
X021700Y016650D01*
X021900D01*
X029750Y023300D02*
X029950D01*
X029850Y023400D02*
Y023200D01*
X029000Y019300D02*
Y019050D01*
X029050Y019000D01*
X029150D01*
X029200Y019050D01*
Y019300D01*
X029450Y019000D02*
Y019300D01*
X029300Y019150D01*
X029500D01*
X027850Y020400D02*
Y020150D01*
X027900Y020100D01*
X028000D01*
X028050Y020150D01*
Y020400D01*
X028150Y020350D02*
X028200Y020400D01*
X028300D01*
X028350Y020350D01*
Y020300D01*
X028300Y020250D01*
X028250D01*
X028300D01*
X028350Y020200D01*
Y020150D01*
X028300Y020100D01*
X028200D01*
X028150Y020150D01*
X021600Y022600D02*
Y022350D01*
X021650Y022300D01*
X021750D01*
X021800Y022350D01*
Y022600D01*
X022100Y022300D02*
X021900D01*
X022100Y022500D01*
Y022550D01*
X022050Y022600D01*
X021950D01*
X021900Y022550D01*
X026900Y024700D02*
Y024450D01*
X026950Y024400D01*
X027050D01*
X027100Y024450D01*
Y024700D01*
X027200Y024400D02*
X027300D01*
X027250D01*
Y024700D01*
X027200Y024650D01*
X022000Y015500D02*
Y015700D01*
X021950Y015750D01*
X021850D01*
X021800Y015700D01*
Y015500D01*
X021850Y015450D01*
X021950D01*
X021900Y015550D02*
X022000Y015450D01*
X021950D02*
X022000Y015500D01*
X022250Y015450D02*
Y015750D01*
X022100Y015600D01*
X022300D01*
X023500Y015500D02*
Y015700D01*
X023450Y015750D01*
X023350D01*
X023300Y015700D01*
Y015500D01*
X023350Y015450D01*
X023450D01*
X023400Y015550D02*
X023500Y015450D01*
X023450D02*
X023500Y015500D01*
X023600Y015700D02*
X023650Y015750D01*
X023750D01*
X023800Y015700D01*
Y015650D01*
X023750Y015600D01*
X023700D01*
X023750D01*
X023800Y015550D01*
Y015500D01*
X023750Y015450D01*
X023650D01*
X023600Y015500D01*
X020450D02*
Y015700D01*
X020400Y015750D01*
X020300D01*
X020250Y015700D01*
Y015500D01*
X020300Y015450D01*
X020400D01*
X020350Y015550D02*
X020450Y015450D01*
X020400D02*
X020450Y015500D01*
X020750Y015450D02*
X020550D01*
X020750Y015650D01*
Y015700D01*
X020700Y015750D01*
X020600D01*
X020550Y015700D01*
X024700Y022500D02*
Y022700D01*
X024650Y022750D01*
X024550D01*
X024500Y022700D01*
Y022500D01*
X024550Y022450D01*
X024650D01*
X024600Y022550D02*
X024700Y022450D01*
X024650D02*
X024700Y022500D01*
X024800Y022450D02*
X024900D01*
X024850D01*
Y022750D01*
X024800Y022700D01*
X028600Y016950D02*
Y016650D01*
X028800D01*
X029100D02*
X028900D01*
X029100Y016850D01*
Y016900D01*
X029050Y016950D01*
X028950D01*
X028900Y016900D01*
X022500Y024650D02*
Y024350D01*
X022700D01*
X022800D02*
X022900D01*
X022850D01*
Y024650D01*
X022800Y024600D01*
X029250Y023550D02*
Y023250D01*
X029400D01*
X029450Y023300D01*
Y023500D01*
X029400Y023550D01*
X029250D01*
X029550Y023250D02*
X029650D01*
X029600D01*
Y023550D01*
X029550Y023500D01*
X029575Y021100D02*
X029525Y021150D01*
X029425D01*
X029375Y021100D01*
Y020900D01*
X029425Y020850D01*
X029525D01*
X029575Y020900D01*
X029675Y020850D02*
X029775D01*
X029725D01*
Y021150D01*
X029675Y021100D01*
X029925D02*
X029975Y021150D01*
X030075D01*
X030125Y021100D01*
Y020900D01*
X030075Y020850D01*
X029975D01*
X029925Y020900D01*
Y021100D01*
X027550Y018900D02*
X027500Y018950D01*
X027400D01*
X027350Y018900D01*
Y018700D01*
X027400Y018650D01*
X027500D01*
X027550Y018700D01*
X027650D02*
X027700Y018650D01*
X027800D01*
X027850Y018700D01*
Y018900D01*
X027800Y018950D01*
X027700D01*
X027650Y018900D01*
Y018850D01*
X027700Y018800D01*
X027850D01*
X022850Y020700D02*
X022800Y020750D01*
X022700D01*
X022650Y020700D01*
Y020500D01*
X022700Y020450D01*
X022800D01*
X022850Y020500D01*
X022950Y020700D02*
X023000Y020750D01*
X023100D01*
X023150Y020700D01*
Y020650D01*
X023100Y020600D01*
X023150Y020550D01*
Y020500D01*
X023100Y020450D01*
X023000D01*
X022950Y020500D01*
Y020550D01*
X023000Y020600D01*
X022950Y020650D01*
Y020700D01*
X023000Y020600D02*
X023100D01*
X023750Y024650D02*
X023700Y024700D01*
X023600D01*
X023550Y024650D01*
Y024450D01*
X023600Y024400D01*
X023700D01*
X023750Y024450D01*
X023850Y024700D02*
X024050D01*
Y024650D01*
X023850Y024450D01*
Y024400D01*
X021500Y024500D02*
X021450Y024550D01*
X021350D01*
X021300Y024500D01*
Y024300D01*
X021350Y024250D01*
X021450D01*
X021500Y024300D01*
X021800Y024550D02*
X021700Y024500D01*
X021600Y024400D01*
Y024300D01*
X021650Y024250D01*
X021750D01*
X021800Y024300D01*
Y024350D01*
X021750Y024400D01*
X021600D01*
X024800Y021000D02*
X024750Y021050D01*
X024650D01*
X024600Y021000D01*
Y020800D01*
X024650Y020750D01*
X024750D01*
X024800Y020800D01*
X025100Y021050D02*
X024900D01*
Y020900D01*
X025000Y020950D01*
X025050D01*
X025100Y020900D01*
Y020800D01*
X025050Y020750D01*
X024950D01*
X024900Y020800D01*
M02*
