G04*
G04 #@! TF.GenerationSoftware,Altium Limited,CircuitMaker,2.2.1 (2.2.1.6)*
G04*
G04 Layer_Color=20142*
%FSAX24Y24*%
%MOIN*%
G70*
G04*
G04 #@! TF.SameCoordinates,15A7914E-F671-45A4-99F6-4AAA3CFDCD00*
G04*
G04*
G04 #@! TF.FilePolarity,Negative*
G04*
G01*
G75*
%ADD46R,0.0375X0.0415*%
%ADD47R,0.0256X0.0394*%
%ADD48R,0.0394X0.0256*%
%ADD49R,0.0630X0.0630*%
%ADD50O,0.0395X0.0178*%
%ADD51O,0.0178X0.0395*%
%ADD52R,0.0730X0.0730*%
%ADD53R,0.0257X0.0257*%
%ADD54R,0.0611X0.0493*%
%ADD55R,0.0336X0.0356*%
%ADD56R,0.0690X0.0690*%
%ADD57R,0.0867X0.0552*%
%ADD58R,0.0316X0.0631*%
%ADD59R,0.0269X0.0237*%
%ADD60R,0.0308X0.0324*%
%ADD61R,0.0324X0.0308*%
%ADD62R,0.0552X0.0296*%
%ADD63R,0.0867X0.1182*%
%ADD64R,0.0257X0.0257*%
%ADD65R,0.0324X0.0324*%
%ADD66R,0.0493X0.0611*%
%ADD67R,0.0415X0.0375*%
%ADD68R,0.0395X0.0434*%
%ADD69R,0.0324X0.0324*%
%ADD70R,0.0552X0.0867*%
%ADD71R,0.0336X0.0336*%
%ADD72R,0.0710X0.0336*%
%ADD73R,0.0415X0.0237*%
%ADD74C,0.0808*%
%ADD75R,0.0808X0.0808*%
%ADD76R,0.0631X0.0631*%
%ADD77C,0.0631*%
G04:AMPARAMS|DCode=78|XSize=43.4mil|YSize=59.1mil|CornerRadius=0mil|HoleSize=0mil|Usage=FLASHONLY|Rotation=270.000|XOffset=0mil|YOffset=0mil|HoleType=Round|Shape=Octagon|*
%AMOCTAGOND78*
4,1,8,0.0296,0.0108,0.0296,-0.0108,0.0187,-0.0217,-0.0187,-0.0217,-0.0296,-0.0108,-0.0296,0.0108,-0.0187,0.0217,0.0187,0.0217,0.0296,0.0108,0.0*
%
%ADD78OCTAGOND78*%

%ADD79O,0.0591X0.0434*%
%ADD80C,0.0671*%
%ADD81R,0.0671X0.0671*%
%ADD82R,0.0671X0.0671*%
%ADD83O,0.0907X0.0513*%
%ADD84O,0.1104X0.0513*%
%ADD85C,0.0580*%
%ADD86C,0.0277*%
D46*
X026554Y021000D02*
D03*
X027046D02*
D03*
X023654Y021550D02*
D03*
X024146D02*
D03*
X025596Y023900D02*
D03*
X025104D02*
D03*
X027754Y024100D02*
D03*
X028246D02*
D03*
X026096Y013350D02*
D03*
X025604D02*
D03*
D47*
X026650D02*
D03*
Y011992D02*
D03*
Y012897D02*
D03*
Y012444D02*
D03*
Y013803D02*
D03*
Y014256D02*
D03*
Y014708D02*
D03*
D48*
X029800Y011362D02*
D03*
X030253D02*
D03*
X030706D02*
D03*
X028442D02*
D03*
X027989D02*
D03*
X027536D02*
D03*
X027083D02*
D03*
X029347D02*
D03*
X028894D02*
D03*
X029800Y015338D02*
D03*
X030253D02*
D03*
X028894D02*
D03*
X028442D02*
D03*
X027989D02*
D03*
X027536D02*
D03*
X027083D02*
D03*
X029347D02*
D03*
X030706D02*
D03*
D49*
X028767Y013246D02*
D03*
Y013915D02*
D03*
X028097Y013246D02*
D03*
Y013915D02*
D03*
D50*
X021589Y021845D02*
D03*
Y021648D02*
D03*
Y021452D02*
D03*
Y021255D02*
D03*
X022711D02*
D03*
Y021452D02*
D03*
Y021648D02*
D03*
Y021845D02*
D03*
D51*
X021855Y020989D02*
D03*
X022052D02*
D03*
X022248D02*
D03*
X022445D02*
D03*
Y022111D02*
D03*
X022248D02*
D03*
X022052D02*
D03*
X021855D02*
D03*
D52*
X022150Y021550D02*
D03*
D53*
X018207Y022150D02*
D03*
X017893D02*
D03*
D54*
X020650Y022365D02*
D03*
Y022935D02*
D03*
X026350Y022265D02*
D03*
Y022835D02*
D03*
X027600Y017765D02*
D03*
Y018335D02*
D03*
D55*
X021250Y019913D02*
D03*
Y020287D02*
D03*
X022150D02*
D03*
Y019913D02*
D03*
X021700D02*
D03*
Y020287D02*
D03*
X020100Y013887D02*
D03*
Y013513D02*
D03*
X021650D02*
D03*
Y013887D02*
D03*
X023200Y013513D02*
D03*
Y013887D02*
D03*
D56*
X022900Y020014D02*
D03*
Y019286D02*
D03*
X021500Y022986D02*
D03*
Y023714D02*
D03*
X023800Y023236D02*
D03*
Y023964D02*
D03*
X029650Y019736D02*
D03*
Y020464D02*
D03*
D57*
X022700Y024030D02*
D03*
Y022770D02*
D03*
D58*
X025250Y022424D02*
D03*
X025624Y021676D02*
D03*
X024876D02*
D03*
D59*
X026660Y021500D02*
D03*
X026140D02*
D03*
D60*
X027335Y022200D02*
D03*
X026965D02*
D03*
D61*
X027350Y022985D02*
D03*
Y022615D02*
D03*
D62*
X027212Y024174D02*
D03*
Y023426D02*
D03*
X026188D02*
D03*
Y023800D02*
D03*
Y024174D02*
D03*
D63*
X028335Y022450D02*
D03*
X030265D02*
D03*
D64*
X017900Y022493D02*
D03*
Y022807D02*
D03*
D65*
Y021419D02*
D03*
Y021781D02*
D03*
X030350Y019081D02*
D03*
Y018719D02*
D03*
D66*
X024285Y020900D02*
D03*
X023715D02*
D03*
X028385Y023500D02*
D03*
X027815D02*
D03*
D67*
X020250Y021696D02*
D03*
Y021204D02*
D03*
D68*
X020500Y015194D02*
D03*
X020874Y014406D02*
D03*
X020126D02*
D03*
X021676D02*
D03*
X022424D02*
D03*
X022050Y015194D02*
D03*
X023226Y014406D02*
D03*
X023974D02*
D03*
X023600Y015194D02*
D03*
D69*
X029631Y015900D02*
D03*
X029269D02*
D03*
X024619Y020050D02*
D03*
X024981D02*
D03*
D70*
X028220Y016800D02*
D03*
X029480D02*
D03*
D71*
X027550Y020397D02*
D03*
Y020003D02*
D03*
D72*
X028358Y018026D02*
D03*
Y018400D02*
D03*
Y018774D02*
D03*
X029342D02*
D03*
Y018400D02*
D03*
Y018026D02*
D03*
D73*
X028026Y019444D02*
D03*
Y019956D02*
D03*
X028774D02*
D03*
Y019700D02*
D03*
Y019444D02*
D03*
D74*
X025450Y015117D02*
D03*
D75*
Y023183D02*
D03*
D76*
X019650Y017750D02*
D03*
D77*
X019943Y017043D02*
D03*
X020650Y016750D02*
D03*
X021357Y017043D02*
D03*
X021650Y017750D02*
D03*
X021357Y018457D02*
D03*
X020650Y018750D02*
D03*
X019943Y018457D02*
D03*
D78*
X018180Y012700D02*
D03*
D79*
X018820D02*
D03*
X018180Y013200D02*
D03*
X018820D02*
D03*
X018180Y013700D02*
D03*
X018820D02*
D03*
X018180Y014200D02*
D03*
X018820D02*
D03*
X018180Y014700D02*
D03*
X018820D02*
D03*
D80*
X018750Y023184D02*
D03*
Y022200D02*
D03*
X026900Y016250D02*
D03*
Y017250D02*
D03*
Y018250D02*
D03*
Y019250D02*
D03*
X023900Y016250D02*
D03*
Y017250D02*
D03*
Y018250D02*
D03*
X030900D02*
D03*
Y017250D02*
D03*
Y016250D02*
D03*
X033900Y019250D02*
D03*
Y018250D02*
D03*
Y017250D02*
D03*
Y016250D02*
D03*
D81*
X018750Y021216D02*
D03*
D82*
X023900Y019250D02*
D03*
X030900D02*
D03*
D83*
X031520Y023701D02*
D03*
Y020299D02*
D03*
D84*
X033630Y023701D02*
D03*
Y020299D02*
D03*
D85*
X019600Y021300D02*
D03*
X020800Y023600D02*
D03*
X027500Y015800D02*
D03*
X028450Y013250D02*
D03*
X030300Y019850D02*
D03*
X030050Y016050D02*
D03*
X029700Y011900D02*
D03*
X024350Y013100D02*
D03*
X024550Y014350D02*
D03*
X024200Y014950D02*
D03*
X033600Y015200D02*
D03*
X028550Y020350D02*
D03*
X028000Y021100D02*
D03*
X024200Y020400D02*
D03*
X028850Y017550D02*
D03*
X025500Y020050D02*
D03*
X027550Y017200D02*
D03*
X029050Y021000D02*
D03*
X031600Y015200D02*
D03*
X030650Y011900D02*
D03*
X023000Y014950D02*
D03*
X021100Y015100D02*
D03*
X022900Y018650D02*
D03*
X025800Y022400D02*
D03*
X026700Y023800D02*
D03*
X028850Y024100D02*
D03*
X017700Y023250D02*
D03*
X017900Y020900D02*
D03*
X030265Y022450D02*
D03*
X032074Y017676D02*
D03*
X031600Y016800D02*
D03*
X019300Y015810D02*
D03*
X028400Y015850D02*
D03*
X020700Y012600D02*
D03*
X025050Y012950D02*
D03*
X025500Y012550D02*
D03*
X026100Y012600D02*
D03*
X030350Y021500D02*
D03*
X027300Y014650D02*
D03*
X025150Y014407D02*
D03*
X026000Y014650D02*
D03*
X028800Y011800D02*
D03*
X021150Y011750D02*
D03*
X031250Y011650D02*
D03*
X032700Y012450D02*
D03*
X031600Y012900D02*
D03*
X033550Y012450D02*
D03*
X024700Y024350D02*
D03*
X024500Y023050D02*
D03*
X024000Y022450D02*
D03*
X023450Y022100D02*
D03*
X026550Y020050D02*
D03*
X019750Y020600D02*
D03*
X021450Y020850D02*
D03*
X020900Y021550D02*
D03*
X023600Y020200D02*
D03*
X026000Y021050D02*
D03*
X027450Y021700D02*
D03*
D86*
X022150Y021550D02*
D03*
M02*
