G04*
G04 #@! TF.GenerationSoftware,Altium Limited,CircuitMaker,2.2.1 (2.2.1.6)*
G04*
G04 Layer_Physical_Order=4*
G04 Layer_Color=11436288*
%FSAX24Y24*%
%MOIN*%
G70*
G04*
G04 #@! TF.SameCoordinates,15A7914E-F671-45A4-99F6-4AAA3CFDCD00*
G04*
G04*
G04 #@! TF.FilePolarity,Positive*
G04*
G01*
G75*
%ADD14C,0.0100*%
%ADD21R,0.0591X0.0591*%
%ADD27R,0.0256X0.0276*%
%ADD87C,0.0728*%
%ADD88R,0.0728X0.0728*%
%ADD89R,0.0551X0.0551*%
%ADD90C,0.0551*%
G04:AMPARAMS|DCode=91|XSize=39.4mil|YSize=55.1mil|CornerRadius=0mil|HoleSize=0mil|Usage=FLASHONLY|Rotation=270.000|XOffset=0mil|YOffset=0mil|HoleType=Round|Shape=Octagon|*
%AMOCTAGOND91*
4,1,8,0.0276,0.0098,0.0276,-0.0098,0.0177,-0.0197,-0.0177,-0.0197,-0.0276,-0.0098,-0.0276,0.0098,-0.0177,0.0197,0.0177,0.0197,0.0276,0.0098,0.0*
%
%ADD91OCTAGOND91*%

%ADD92O,0.0551X0.0394*%
%ADD93C,0.0591*%
%ADD94R,0.0591X0.0591*%
%ADD95O,0.0827X0.0433*%
%ADD96O,0.1024X0.0433*%
%ADD97C,0.0500*%
%ADD98C,0.0197*%
%ADD109R,0.0276X0.0394*%
%ADD110R,0.0276X0.0118*%
%ADD111R,0.0315X0.0315*%
%ADD112R,0.0413X0.0374*%
D14*
X027450Y019184D02*
X027940Y018694D01*
Y014738D02*
Y018694D01*
X026572Y013370D02*
X027940Y014738D01*
X027500Y015800D02*
X027550D01*
X027560Y015810D01*
X019300D02*
X027560D01*
X021150Y011750D02*
X028750D01*
X028800Y011800D01*
X020740Y012560D02*
X025490D01*
X019960Y013560D02*
X025462D01*
X019700Y013750D02*
X025045D01*
X019460Y013960D02*
X024712D01*
X024400Y014200D02*
X024550Y014350D01*
X019100Y012700D02*
X019960Y013560D01*
X019150Y013200D02*
X019700Y013750D01*
X019200Y013700D02*
X019460Y013960D01*
X025045Y013750D02*
X025945Y014650D01*
X031520Y023701D02*
X031870Y023350D01*
Y023220D02*
Y023350D01*
X031831Y023181D02*
X031870Y023220D01*
X031358Y023181D02*
X031831D01*
X031520Y020299D02*
X031870Y020650D01*
Y020780D01*
X031398D02*
X031870D01*
X031358Y020819D02*
X031398Y020780D01*
X033935Y014435D02*
Y014865D01*
X032150Y014435D02*
X033935D01*
X033600Y015200D02*
X033935Y014865D01*
X024708Y019810D02*
X025948Y021050D01*
X026000D01*
X022750Y014700D02*
X023000Y014950D01*
X018750Y014700D02*
X022750D01*
X030749Y017685D02*
X032065D01*
X032074Y017676D01*
X030734Y017700D02*
X030749Y017685D01*
X028884Y015850D02*
X030734Y017700D01*
X028400Y015850D02*
X028884D01*
X030248Y016800D02*
X031600D01*
X029660Y016212D02*
X030248Y016800D01*
X029660Y016160D02*
Y016212D01*
X026100Y012600D02*
X029660Y016160D01*
X027450Y019184D02*
Y021700D01*
X025050Y012950D02*
X025470Y013370D01*
X026572D01*
X025490Y012560D02*
X025500Y012550D01*
X020700Y012600D02*
X020740Y012560D01*
X031870Y021902D02*
Y022098D01*
X030900Y021500D02*
X030950Y021550D01*
X030350Y021500D02*
X030900D01*
X030950Y021550D02*
X031083Y021417D01*
X030950Y021550D02*
Y022366D01*
X031167Y022583D01*
X031350D01*
X031358Y022591D01*
X031350Y021417D02*
X031358Y021409D01*
X031083Y021417D02*
X031350D01*
X031862Y021500D02*
X031870Y021508D01*
X031633Y021500D02*
X031862D01*
X031602Y021470D02*
X031633Y021500D01*
X031602Y021409D02*
Y021470D01*
X031358Y021409D02*
X031602D01*
X031862Y022500D02*
X031870Y022492D01*
X031633Y022500D02*
X031862D01*
X031602Y022530D02*
X031633Y022500D01*
X031602Y022530D02*
Y022591D01*
X031358D02*
X031602D01*
X031358Y021803D02*
Y022197D01*
X026552Y014650D02*
X027300D01*
X025462Y013560D02*
X026552Y014650D01*
X018750Y012700D02*
X019100D01*
X025945Y014650D02*
X026000D01*
X018750Y013200D02*
X019150D01*
X018750Y013700D02*
X019200D01*
X024712Y013960D02*
X025150Y014398D01*
Y014407D01*
X018750Y014200D02*
X024400D01*
X031210Y011690D02*
X031250Y011650D01*
X030900Y016250D02*
X031210Y015940D01*
Y011690D02*
Y015940D01*
X031600Y012900D02*
X031687Y012813D01*
X032150D01*
X033550Y012450D02*
X033950Y012850D01*
Y012863D01*
X032700Y012450D02*
X033100Y012850D01*
Y012863D01*
X032054Y012909D02*
X032150Y012813D01*
X024000Y022450D02*
X024110Y022560D01*
Y023212D01*
X024700Y023802D01*
Y024350D01*
X024500Y023102D02*
X026390Y021212D01*
X024500Y023050D02*
Y023102D01*
X023350Y022000D02*
X023450Y022100D01*
X023350Y020450D02*
Y022000D01*
X026390Y020210D02*
X026550Y020050D01*
X026390Y020210D02*
Y021212D01*
X019750Y020600D02*
X021148D01*
X021938Y019810D01*
X024708D01*
X020900Y021400D02*
X021450Y020850D01*
X020900Y021400D02*
Y021550D01*
X023350Y020450D02*
X023600Y020200D01*
X032150Y013200D02*
Y013850D01*
X033100Y013200D02*
Y013850D01*
X033950Y013200D02*
Y013850D01*
D21*
X018750Y021216D02*
D03*
D27*
X033100Y012863D02*
D03*
Y013237D02*
D03*
X033950D02*
D03*
Y012863D02*
D03*
X032150Y013187D02*
D03*
Y012813D02*
D03*
D87*
X025450Y015117D02*
D03*
D88*
Y023183D02*
D03*
D89*
X019650Y017750D02*
D03*
D90*
X019943Y017043D02*
D03*
X020650Y016750D02*
D03*
X021357Y017043D02*
D03*
X021650Y017750D02*
D03*
X021357Y018457D02*
D03*
X020650Y018750D02*
D03*
X019943Y018457D02*
D03*
D91*
X018180Y012700D02*
D03*
D92*
X018820D02*
D03*
X018180Y013200D02*
D03*
X018820D02*
D03*
X018180Y013700D02*
D03*
X018820D02*
D03*
X018180Y014200D02*
D03*
X018820D02*
D03*
X018180Y014700D02*
D03*
X018820D02*
D03*
D93*
X018750Y023184D02*
D03*
Y022200D02*
D03*
X026900Y016250D02*
D03*
Y017250D02*
D03*
Y018250D02*
D03*
Y019250D02*
D03*
X023900Y016250D02*
D03*
Y017250D02*
D03*
Y018250D02*
D03*
X030900D02*
D03*
Y017250D02*
D03*
Y016250D02*
D03*
X033900Y019250D02*
D03*
Y018250D02*
D03*
Y017250D02*
D03*
Y016250D02*
D03*
D94*
X023900Y019250D02*
D03*
X030900D02*
D03*
D95*
X031520Y023701D02*
D03*
Y020299D02*
D03*
D96*
X033630Y023701D02*
D03*
Y020299D02*
D03*
D97*
X019600Y021300D02*
D03*
X020800Y023600D02*
D03*
X027500Y015800D02*
D03*
X028450Y013250D02*
D03*
X030300Y019850D02*
D03*
X030050Y016050D02*
D03*
X029700Y011900D02*
D03*
X024350Y013100D02*
D03*
X024550Y014350D02*
D03*
X024200Y014950D02*
D03*
X033600Y015200D02*
D03*
X028550Y020350D02*
D03*
X028000Y021100D02*
D03*
X024200Y020400D02*
D03*
X028850Y017550D02*
D03*
X025500Y020050D02*
D03*
X027550Y017200D02*
D03*
X029050Y021000D02*
D03*
X031600Y015200D02*
D03*
X030650Y011900D02*
D03*
X023000Y014950D02*
D03*
X021100Y015100D02*
D03*
X022900Y018650D02*
D03*
X025800Y022400D02*
D03*
X026700Y023800D02*
D03*
X028850Y024100D02*
D03*
X017700Y023250D02*
D03*
X017900Y020900D02*
D03*
X030265Y022450D02*
D03*
X032074Y017676D02*
D03*
X031600Y016800D02*
D03*
X019300Y015810D02*
D03*
X028400Y015850D02*
D03*
X020700Y012600D02*
D03*
X025050Y012950D02*
D03*
X025500Y012550D02*
D03*
X026100Y012600D02*
D03*
X030350Y021500D02*
D03*
X027300Y014650D02*
D03*
X025150Y014407D02*
D03*
X026000Y014650D02*
D03*
X028800Y011800D02*
D03*
X021150Y011750D02*
D03*
X031250Y011650D02*
D03*
X032700Y012450D02*
D03*
X031600Y012900D02*
D03*
X033550Y012450D02*
D03*
X024700Y024350D02*
D03*
X024500Y023050D02*
D03*
X024000Y022450D02*
D03*
X023450Y022100D02*
D03*
X026550Y020050D02*
D03*
X019750Y020600D02*
D03*
X021450Y020850D02*
D03*
X020900Y021550D02*
D03*
X023600Y020200D02*
D03*
X026000Y021050D02*
D03*
X027450Y021700D02*
D03*
D98*
X022150Y021550D02*
D03*
D109*
X031870Y020780D02*
D03*
Y023220D02*
D03*
D110*
Y021114D02*
D03*
Y021311D02*
D03*
Y022689D02*
D03*
Y022886D02*
D03*
Y022492D02*
D03*
Y022295D02*
D03*
Y021508D02*
D03*
Y021705D02*
D03*
Y021902D02*
D03*
Y022098D02*
D03*
X031358Y020819D02*
D03*
Y021016D02*
D03*
Y021213D02*
D03*
Y021409D02*
D03*
Y021606D02*
D03*
Y021803D02*
D03*
Y022197D02*
D03*
Y022394D02*
D03*
Y022591D02*
D03*
Y022787D02*
D03*
Y022984D02*
D03*
Y023181D02*
D03*
D111*
X033100Y014445D02*
D03*
Y013855D02*
D03*
X033950Y013850D02*
D03*
Y014450D02*
D03*
D112*
X032150Y013865D02*
D03*
Y014435D02*
D03*
M02*
